<svg width="69" height="20" viewBox="0 0 69 20" fill="none" xmlns="http://www.w3.org/2000/svg">
<rect width="69" height="20" fill="#07864B"/>
<g clip-path="url(#clip0_1599_15)">
<path d="M12 5C9.24 5 7 7.24 7 10C7 12.76 9.24 15 12 15C14.76 15 17 12.76 17 10C17 7.24 14.76 5 12 5ZM10.645 12.145L8.85 10.35C8.655 10.155 8.655 9.84 8.85 9.645C9.045 9.45 9.36 9.45 9.555 9.645L11 11.085L14.44 7.645C14.635 7.45 14.95 7.45 15.145 7.645C15.34 7.84 15.34 8.155 15.145 8.35L11.35 12.145C11.16 12.34 10.84 12.34 10.645 12.145Z" fill="white"/>
</g>
<path d="M26.97 12.67H24.19L23.73 14H22.26L24.77 7.01H26.4L28.91 14H27.43L26.97 12.67ZM26.59 11.55L25.58 8.63L24.57 11.55H26.59ZM31.2482 9.26C31.4282 9.00667 31.6749 8.79667 31.9882 8.63C32.3082 8.45667 32.6715 8.37 33.0782 8.37C33.5515 8.37 33.9782 8.48667 34.3582 8.72C34.7449 8.95333 35.0482 9.28667 35.2682 9.72C35.4949 10.1467 35.6082 10.6433 35.6082 11.21C35.6082 11.7767 35.4949 12.28 35.2682 12.72C35.0482 13.1533 34.7449 13.49 34.3582 13.73C33.9782 13.97 33.5515 14.09 33.0782 14.09C32.6715 14.09 32.3115 14.0067 31.9982 13.84C31.6915 13.6733 31.4415 13.4633 31.2482 13.21V16.64H29.8482V8.46H31.2482V9.26ZM34.1782 11.21C34.1782 10.8767 34.1082 10.59 33.9682 10.35C33.8349 10.1033 33.6549 9.91667 33.4282 9.79C33.2082 9.66333 32.9682 9.6 32.7082 9.6C32.4549 9.6 32.2149 9.66667 31.9882 9.8C31.7682 9.92667 31.5882 10.1133 31.4482 10.36C31.3149 10.6067 31.2482 10.8967 31.2482 11.23C31.2482 11.5633 31.3149 11.8533 31.4482 12.1C31.5882 12.3467 31.7682 12.5367 31.9882 12.67C32.2149 12.7967 32.4549 12.86 32.7082 12.86C32.9682 12.86 33.2082 12.7933 33.4282 12.66C33.6549 12.5267 33.8349 12.3367 33.9682 12.09C34.1082 11.8433 34.1782 11.55 34.1782 11.21ZM38.0255 9.26C38.2055 9.00667 38.4522 8.79667 38.7655 8.63C39.0855 8.45667 39.4489 8.37 39.8555 8.37C40.3289 8.37 40.7555 8.48667 41.1355 8.72C41.5222 8.95333 41.8255 9.28667 42.0455 9.72C42.2722 10.1467 42.3855 10.6433 42.3855 11.21C42.3855 11.7767 42.2722 12.28 42.0455 12.72C41.8255 13.1533 41.5222 13.49 41.1355 13.73C40.7555 13.97 40.3289 14.09 39.8555 14.09C39.4489 14.09 39.0889 14.0067 38.7755 13.84C38.4689 13.6733 38.2189 13.4633 38.0255 13.21V16.64H36.6255V8.46H38.0255V9.26ZM40.9555 11.21C40.9555 10.8767 40.8855 10.59 40.7455 10.35C40.6122 10.1033 40.4322 9.91667 40.2055 9.79C39.9855 9.66333 39.7455 9.6 39.4855 9.6C39.2322 9.6 38.9922 9.66667 38.7655 9.8C38.5455 9.92667 38.3655 10.1133 38.2255 10.36C38.0922 10.6067 38.0255 10.8967 38.0255 11.23C38.0255 11.5633 38.0922 11.8533 38.2255 12.1C38.3655 12.3467 38.5455 12.5367 38.7655 12.67C38.9922 12.7967 39.2322 12.86 39.4855 12.86C39.7455 12.86 39.9855 12.7933 40.2055 12.66C40.4322 12.5267 40.6122 12.3367 40.7455 12.09C40.8855 11.8433 40.9555 11.55 40.9555 11.21ZM44.8029 6.6V14H43.4029V6.6H44.8029ZM46.8961 7.8C46.6494 7.8 46.4428 7.72333 46.2761 7.57C46.1161 7.41 46.0361 7.21333 46.0361 6.98C46.0361 6.74667 46.1161 6.55333 46.2761 6.4C46.4428 6.24 46.6494 6.16 46.8961 6.16C47.1428 6.16 47.3461 6.24 47.5061 6.4C47.6728 6.55333 47.7561 6.74667 47.7561 6.98C47.7561 7.21333 47.6728 7.41 47.5061 7.57C47.3461 7.72333 47.1428 7.8 46.8961 7.8ZM47.5861 8.46V14H46.1861V8.46H47.5861ZM54.1193 11.11C54.1193 11.31 54.106 11.49 54.0793 11.65H50.0293C50.0626 12.05 50.2026 12.3633 50.4493 12.59C50.696 12.8167 50.9993 12.93 51.3593 12.93C51.8793 12.93 52.2493 12.7067 52.4693 12.26H53.9793C53.8193 12.7933 53.5126 13.2333 53.0593 13.58C52.606 13.92 52.0493 14.09 51.3893 14.09C50.856 14.09 50.376 13.9733 49.9493 13.74C49.5293 13.5 49.1993 13.1633 48.9593 12.73C48.726 12.2967 48.6093 11.7967 48.6093 11.23C48.6093 10.6567 48.726 10.1533 48.9593 9.72C49.1926 9.28667 49.5193 8.95333 49.9393 8.72C50.3593 8.48667 50.8426 8.37 51.3893 8.37C51.916 8.37 52.386 8.48333 52.7993 8.71C53.2193 8.93667 53.5426 9.26 53.7693 9.68C54.0026 10.0933 54.1193 10.57 54.1193 11.11ZM52.6693 10.71C52.6626 10.35 52.5326 10.0633 52.2793 9.85C52.026 9.63 51.716 9.52 51.3493 9.52C51.0026 9.52 50.7093 9.62667 50.4693 9.84C50.236 10.0467 50.0926 10.3367 50.0393 10.71H52.6693ZM54.7812 11.21C54.7812 10.65 54.8912 10.1533 55.1112 9.72C55.3378 9.28667 55.6445 8.95333 56.0312 8.72C56.4178 8.48667 56.8478 8.37 57.3212 8.37C57.6812 8.37 58.0245 8.45 58.3512 8.61C58.6778 8.76333 58.9378 8.97 59.1312 9.23V6.6H60.5512V14H59.1312V13.18C58.9578 13.4533 58.7145 13.6733 58.4012 13.84C58.0878 14.0067 57.7245 14.09 57.3112 14.09C56.8445 14.09 56.4178 13.97 56.0312 13.73C55.6445 13.49 55.3378 13.1533 55.1112 12.72C54.8912 12.28 54.7812 11.7767 54.7812 11.21ZM59.1412 11.23C59.1412 10.89 59.0745 10.6 58.9412 10.36C58.8078 10.1133 58.6278 9.92667 58.4012 9.8C58.1745 9.66667 57.9312 9.6 57.6712 9.6C57.4112 9.6 57.1712 9.66333 56.9512 9.79C56.7312 9.91667 56.5512 10.1033 56.4112 10.35C56.2778 10.59 56.2112 10.8767 56.2112 11.21C56.2112 11.5433 56.2778 11.8367 56.4112 12.09C56.5512 12.3367 56.7312 12.5267 56.9512 12.66C57.1778 12.7933 57.4178 12.86 57.6712 12.86C57.9312 12.86 58.1745 12.7967 58.4012 12.67C58.6278 12.5367 58.8078 12.35 58.9412 12.11C59.0745 11.8633 59.1412 11.57 59.1412 11.23Z" fill="white"/>
<defs>
<clipPath id="clip0_1599_15">
<rect width="12" height="12" fill="white" transform="translate(6 4)"/>
</clipPath>
</defs>
</svg>
