<svg width="93" height="20" viewBox="0 0 93 20" fill="none" xmlns="http://www.w3.org/2000/svg">
<rect width="93" height="20" fill="#DAA400"/>
<g clip-path="url(#clip0_1599_30)">
<path d="M12 5C9.24 5 7 7.24 7 10C7 12.76 9.24 15 12 15C14.76 15 17 12.76 17 10C17 7.24 14.76 5 12 5ZM12.5 12.5H11.5V9.5H12.5V12.5ZM12.5 8.5H11.5V7.5H12.5V8.5Z" fill="white"/>
</g>
<path d="M24.09 8.15V9.9H26.44V11.01H24.09V12.86H26.74V14H22.69V7.01H26.74V8.15H24.09ZM31.0723 14L29.9323 12.28L28.9223 14H27.4223L29.2323 11.22L27.4023 8.46H28.9823L30.1123 10.17L31.1323 8.46H32.6323L30.8123 11.22L32.6523 14H31.0723ZM34.8127 9.26C34.9927 9.00667 35.2393 8.79667 35.5527 8.63C35.8727 8.45667 36.236 8.37 36.6427 8.37C37.116 8.37 37.5427 8.48667 37.9227 8.72C38.3093 8.95333 38.6127 9.28667 38.8327 9.72C39.0593 10.1467 39.1727 10.6433 39.1727 11.21C39.1727 11.7767 39.0593 12.28 38.8327 12.72C38.6127 13.1533 38.3093 13.49 37.9227 13.73C37.5427 13.97 37.116 14.09 36.6427 14.09C36.236 14.09 35.876 14.0067 35.5627 13.84C35.256 13.6733 35.006 13.4633 34.8127 13.21V16.64H33.4127V8.46H34.8127V9.26ZM37.7427 11.21C37.7427 10.8767 37.6727 10.59 37.5327 10.35C37.3993 10.1033 37.2193 9.91667 36.9927 9.79C36.7727 9.66333 36.5327 9.6 36.2727 9.6C36.0193 9.6 35.7793 9.66667 35.5527 9.8C35.3327 9.92667 35.1527 10.1133 35.0127 10.36C34.8793 10.6067 34.8127 10.8967 34.8127 11.23C34.8127 11.5633 34.8793 11.8533 35.0127 12.1C35.1527 12.3467 35.3327 12.5367 35.5527 12.67C35.7793 12.7967 36.0193 12.86 36.2727 12.86C36.5327 12.86 36.7727 12.7933 36.9927 12.66C37.2193 12.5267 37.3993 12.3367 37.5327 12.09C37.6727 11.8433 37.7427 11.55 37.7427 11.21ZM40.9 7.8C40.6533 7.8 40.4467 7.72333 40.28 7.57C40.12 7.41 40.04 7.21333 40.04 6.98C40.04 6.74667 40.12 6.55333 40.28 6.4C40.4467 6.24 40.6533 6.16 40.9 6.16C41.1467 6.16 41.35 6.24 41.51 6.4C41.6767 6.55333 41.76 6.74667 41.76 6.98C41.76 7.21333 41.6767 7.41 41.51 7.57C41.35 7.72333 41.1467 7.8 40.9 7.8ZM41.59 8.46V14H40.19V8.46H41.59ZM44.3732 9.32C44.5532 9.02667 44.7865 8.79667 45.0732 8.63C45.3665 8.46333 45.6999 8.38 46.0732 8.38V9.85H45.7032C45.2632 9.85 44.9299 9.95333 44.7032 10.16C44.4832 10.3667 44.3732 10.7267 44.3732 11.24V14H42.9732V8.46H44.3732V9.32ZM52.1662 11.11C52.1662 11.31 52.1528 11.49 52.1262 11.65H48.0762C48.1095 12.05 48.2495 12.3633 48.4962 12.59C48.7428 12.8167 49.0462 12.93 49.4062 12.93C49.9262 12.93 50.2962 12.7067 50.5162 12.26H52.0262C51.8662 12.7933 51.5595 13.2333 51.1062 13.58C50.6528 13.92 50.0962 14.09 49.4362 14.09C48.9028 14.09 48.4228 13.9733 47.9962 13.74C47.5762 13.5 47.2462 13.1633 47.0062 12.73C46.7728 12.2967 46.6562 11.7967 46.6562 11.23C46.6562 10.6567 46.7728 10.1533 47.0062 9.72C47.2395 9.28667 47.5662 8.95333 47.9862 8.72C48.4062 8.48667 48.8895 8.37 49.4362 8.37C49.9628 8.37 50.4328 8.48333 50.8462 8.71C51.2662 8.93667 51.5895 9.26 51.8162 9.68C52.0495 10.0933 52.1662 10.57 52.1662 11.11ZM50.7162 10.71C50.7095 10.35 50.5795 10.0633 50.3262 9.85C50.0728 9.63 49.7628 9.52 49.3962 9.52C49.0495 9.52 48.7562 9.62667 48.5162 9.84C48.2828 10.0467 48.1395 10.3367 48.0862 10.71H50.7162ZM55.308 14.09C54.8547 14.09 54.448 14.01 54.088 13.85C53.728 13.6833 53.4414 13.46 53.228 13.18C53.0214 12.9 52.908 12.59 52.888 12.25H54.298C54.3247 12.4633 54.428 12.64 54.608 12.78C54.7947 12.92 55.0247 12.99 55.298 12.99C55.5647 12.99 55.7714 12.9367 55.918 12.83C56.0714 12.7233 56.148 12.5867 56.148 12.42C56.148 12.24 56.0547 12.1067 55.868 12.02C55.688 11.9267 55.398 11.8267 54.998 11.72C54.5847 11.62 54.2447 11.5167 53.978 11.41C53.718 11.3033 53.4914 11.14 53.298 10.92C53.1114 10.7 53.018 10.4033 53.018 10.03C53.018 9.72333 53.1047 9.44333 53.278 9.19C53.458 8.93667 53.7114 8.73667 54.038 8.59C54.3714 8.44333 54.7614 8.37 55.208 8.37C55.868 8.37 56.3947 8.53667 56.788 8.87C57.1814 9.19667 57.398 9.64 57.438 10.2H56.098C56.078 9.98 55.9847 9.80667 55.818 9.68C55.658 9.54667 55.4414 9.48 55.168 9.48C54.9147 9.48 54.718 9.52667 54.578 9.62C54.4447 9.71333 54.378 9.84333 54.378 10.01C54.378 10.1967 54.4714 10.34 54.658 10.44C54.8447 10.5333 55.1347 10.63 55.528 10.73C55.928 10.83 56.258 10.9333 56.518 11.04C56.778 11.1467 57.0014 11.3133 57.188 11.54C57.3814 11.76 57.4814 12.0533 57.488 12.42C57.488 12.74 57.398 13.0267 57.218 13.28C57.0447 13.5333 56.7914 13.7333 56.458 13.88C56.1314 14.02 55.748 14.09 55.308 14.09ZM63.4301 14.07C62.9434 14.07 62.5034 13.9867 62.1101 13.82C61.7234 13.6533 61.4167 13.4133 61.1901 13.1C60.9634 12.7867 60.8467 12.4167 60.8401 11.99H62.3401C62.3601 12.2767 62.4601 12.5033 62.6401 12.67C62.8267 12.8367 63.0801 12.92 63.4001 12.92C63.7267 12.92 63.9834 12.8433 64.1701 12.69C64.3567 12.53 64.4501 12.3233 64.4501 12.07C64.4501 11.8633 64.3867 11.6933 64.2601 11.56C64.1334 11.4267 63.9734 11.3233 63.7801 11.25C63.5934 11.17 63.3334 11.0833 63.0001 10.99C62.5467 10.8567 62.1767 10.7267 61.8901 10.6C61.6101 10.4667 61.3667 10.27 61.1601 10.01C60.9601 9.74333 60.8601 9.39 60.8601 8.95C60.8601 8.53667 60.9634 8.17667 61.1701 7.87C61.3767 7.56333 61.6667 7.33 62.0401 7.17C62.4134 7.00333 62.8401 6.92 63.3201 6.92C64.0401 6.92 64.6234 7.09667 65.0701 7.45C65.5234 7.79667 65.7734 8.28333 65.8201 8.91H64.2801C64.2667 8.67 64.1634 8.47333 63.9701 8.32C63.7834 8.16 63.5334 8.08 63.2201 8.08C62.9467 8.08 62.7267 8.15 62.5601 8.29C62.4001 8.43 62.3201 8.63333 62.3201 8.9C62.3201 9.08667 62.3801 9.24333 62.5001 9.37C62.6267 9.49 62.7801 9.59 62.9601 9.67C63.1467 9.74333 63.4067 9.83 63.7401 9.93C64.1934 10.0633 64.5634 10.1967 64.8501 10.33C65.1367 10.4633 65.3834 10.6633 65.5901 10.93C65.7967 11.1967 65.9001 11.5467 65.9001 11.98C65.9001 12.3533 65.8034 12.7 65.6101 13.02C65.4167 13.34 65.1334 13.5967 64.7601 13.79C64.3867 13.9767 63.9434 14.07 63.4301 14.07ZM69.5738 14.09C69.0405 14.09 68.5605 13.9733 68.1338 13.74C67.7072 13.5 67.3705 13.1633 67.1238 12.73C66.8838 12.2967 66.7638 11.7967 66.7638 11.23C66.7638 10.6633 66.8872 10.1633 67.1338 9.73C67.3872 9.29667 67.7305 8.96333 68.1638 8.73C68.5972 8.49 69.0805 8.37 69.6138 8.37C70.1472 8.37 70.6305 8.49 71.0638 8.73C71.4972 8.96333 71.8372 9.29667 72.0838 9.73C72.3372 10.1633 72.4638 10.6633 72.4638 11.23C72.4638 11.7967 72.3338 12.2967 72.0738 12.73C71.8205 13.1633 71.4738 13.5 71.0338 13.74C70.6005 13.9733 70.1138 14.09 69.5738 14.09ZM69.5738 12.87C69.8272 12.87 70.0638 12.81 70.2838 12.69C70.5105 12.5633 70.6905 12.3767 70.8238 12.13C70.9572 11.8833 71.0238 11.5833 71.0238 11.23C71.0238 10.7033 70.8838 10.3 70.6038 10.02C70.3305 9.73333 69.9938 9.59 69.5938 9.59C69.1938 9.59 68.8572 9.73333 68.5838 10.02C68.3172 10.3 68.1838 10.7033 68.1838 11.23C68.1838 11.7567 68.3138 12.1633 68.5738 12.45C68.8405 12.73 69.1738 12.87 69.5738 12.87ZM75.9508 14.09C75.4174 14.09 74.9374 13.9733 74.5108 13.74C74.0841 13.5 73.7474 13.1633 73.5008 12.73C73.2608 12.2967 73.1408 11.7967 73.1408 11.23C73.1408 10.6633 73.2641 10.1633 73.5108 9.73C73.7641 9.29667 74.1074 8.96333 74.5408 8.73C74.9741 8.49 75.4574 8.37 75.9908 8.37C76.5241 8.37 77.0074 8.49 77.4408 8.73C77.8741 8.96333 78.2141 9.29667 78.4608 9.73C78.7141 10.1633 78.8408 10.6633 78.8408 11.23C78.8408 11.7967 78.7108 12.2967 78.4508 12.73C78.1974 13.1633 77.8508 13.5 77.4108 13.74C76.9774 13.9733 76.4908 14.09 75.9508 14.09ZM75.9508 12.87C76.2041 12.87 76.4408 12.81 76.6608 12.69C76.8874 12.5633 77.0674 12.3767 77.2008 12.13C77.3341 11.8833 77.4008 11.5833 77.4008 11.23C77.4008 10.7033 77.2608 10.3 76.9808 10.02C76.7074 9.73333 76.3708 9.59 75.9708 9.59C75.5708 9.59 75.2341 9.73333 74.9608 10.02C74.6941 10.3 74.5608 10.7033 74.5608 11.23C74.5608 11.7567 74.6908 12.1633 74.9508 12.45C75.2174 12.73 75.5508 12.87 75.9508 12.87ZM82.9377 8.38C83.5977 8.38 84.1311 8.59 84.5377 9.01C84.9444 9.42333 85.1477 10.0033 85.1477 10.75V14H83.7477V10.94C83.7477 10.5 83.6377 10.1633 83.4177 9.93C83.1977 9.69 82.8977 9.57 82.5177 9.57C82.1311 9.57 81.8244 9.69 81.5977 9.93C81.3777 10.1633 81.2677 10.5 81.2677 10.94V14H79.8677V8.46H81.2677V9.15C81.4544 8.91 81.6911 8.72333 81.9777 8.59C82.2711 8.45 82.5911 8.38 82.9377 8.38Z" fill="white"/>
<defs>
<clipPath id="clip0_1599_30">
<rect width="12" height="12" fill="white" transform="translate(6 4)"/>
</clipPath>
</defs>
</svg>
